<svg width="30" height="30" viewBox="0 0 30 30" fill="none" xmlns="http://www.w3.org/2000/svg">
<g clip-path="url(#clip0_739_2)">
<path d="M29.2308 24.339L5.71971 0.827935C4.69433 -0.197447 3.03193 -0.197447 2.00815 0.827935L0.769037 2.06512C-0.256346 3.09083 -0.256346 4.75323 0.769037 5.77701L24.2801 29.2881C25.3058 30.3134 26.9682 30.3134 27.992 29.2881L29.2292 28.0509C30.2565 27.0271 30.2565 25.3644 29.2308 24.339V24.339Z" fill="#F44336"/>
<path d="M24.2801 0.828L0.769037 24.339C-0.256346 25.3644 -0.256346 27.0272 0.769037 28.0509L2.00622 29.2881C3.03193 30.3135 4.69433 30.3135 5.71811 29.2881L29.2308 5.77867C30.2565 4.75329 30.2565 3.09089 29.2308 2.06711L27.9936 0.829923C26.9682 -0.197382 25.3058 -0.197382 24.2801 0.828V0.828Z" fill="#F44336"/>
</g>
<defs>
<clipPath id="clip0_739_2">
<rect width="30" height="30" fill="white"/>
</clipPath>
</defs>
</svg>
